<svg width="1067" height="1022" viewBox="0 0 1067 1022" fill="none" xmlns="http://www.w3.org/2000/svg">
<g clip-path="url(#clip0_144_7)">
<path d="M10.8744 485.832C9.09937 483.717 5.9456 483.441 3.83022 485.216C1.71485 486.991 1.43893 490.145 3.21394 492.26L112.488 622.487C114.263 624.603 117.417 624.879 119.532 623.104C121.647 621.329 121.923 618.175 120.148 616.06L10.8744 485.832Z" fill="url(#paint0_linear_144_7)" fill-opacity="0.3"/>
<path d="M19.5739 436.895C16.3789 433.087 10.7021 432.59 6.8944 435.785C3.08673 438.98 2.59007 444.657 5.78509 448.465L152.983 623.889C156.178 627.697 161.855 628.193 165.663 624.998C169.471 621.803 169.967 616.126 166.772 612.319L19.5739 436.895Z" fill="url(#paint1_linear_144_7)" fill-opacity="0.35"/>
<path d="M700.874 177.332C699.099 175.217 695.946 174.941 693.83 176.716C691.715 178.491 691.439 181.645 693.214 183.76L815.344 329.308C817.119 331.424 820.272 331.7 822.388 329.925C824.503 328.15 824.779 324.996 823.004 322.88L700.874 177.332Z" fill="url(#paint2_linear_144_7)"/>
<path d="M840.262 210.65C839.73 210.016 838.784 209.933 838.149 210.466C837.514 210.998 837.432 211.944 837.964 212.579L964.593 363.49C965.126 364.124 966.072 364.207 966.707 363.674C967.341 363.142 967.424 362.196 966.891 361.561L840.262 210.65Z" fill="url(#paint3_linear_144_7)"/>
<path d="M443.874 289.828C442.099 287.713 438.946 287.437 436.83 289.212C434.715 290.987 434.439 294.141 436.214 296.256L545.488 426.484C547.263 428.599 550.417 428.875 552.532 427.1C554.647 425.325 554.923 422.171 553.148 420.056L443.874 289.828Z" fill="url(#paint4_linear_144_7)" fill-opacity="0.6"/>
<path d="M374.7 324.063C373.279 322.37 370.756 322.149 369.064 323.569C367.372 324.989 367.151 327.513 368.571 329.205L421.178 391.899C422.598 393.591 425.121 393.812 426.813 392.392C428.505 390.972 428.726 388.449 427.306 386.757L374.7 324.063Z" fill="url(#paint5_linear_144_7)" fill-opacity="0.6"/>
<path d="M561.437 528.916C560.55 527.858 558.973 527.72 557.915 528.608C556.857 529.495 556.719 531.072 557.607 532.13L693.231 693.761C694.119 694.818 695.696 694.956 696.753 694.069C697.811 693.181 697.949 691.604 697.062 690.547L561.437 528.916Z" fill="url(#paint6_linear_144_7)" fill-opacity="0.43"/>
<path d="M702.787 549.092C701.189 547.188 698.351 546.94 696.447 548.537C694.543 550.135 694.295 552.973 695.893 554.877L828.946 713.444C830.543 715.347 833.382 715.596 835.285 713.998C837.189 712.401 837.438 709.562 835.84 707.658L702.787 549.092Z" fill="url(#paint7_linear_144_7)" fill-opacity="0.69"/>
<path d="M722.787 820.447C721.189 818.543 718.351 818.295 716.447 819.893C714.543 821.49 714.295 824.329 715.893 826.232L848.946 984.799C850.543 986.703 853.382 986.951 855.286 985.354C857.189 983.756 857.438 980.918 855.84 979.014L722.787 820.447Z" fill="url(#paint8_linear_144_7)" fill-opacity="0.25"/>
<path d="M681.437 809.916C680.55 808.858 678.973 808.72 677.915 809.608C676.857 810.495 676.719 812.072 677.607 813.13L724.902 869.494C725.789 870.551 727.366 870.689 728.424 869.802C729.482 868.914 729.62 867.337 728.732 866.28L681.437 809.916Z" fill="url(#paint9_linear_144_7)" fill-opacity="0.25"/>
<path d="M463.312 151.674C460.649 148.501 455.918 148.087 452.745 150.749C449.572 153.412 449.158 158.143 451.821 161.316L600.948 339.038C603.61 342.211 608.341 342.625 611.514 339.962C614.687 337.3 615.101 332.569 612.438 329.396L463.312 151.674Z" fill="url(#paint10_linear_144_7)" fill-opacity="0.6"/>
<path d="M802.312 828.744C799.649 825.571 794.918 825.157 791.745 827.82C788.572 830.482 788.158 835.213 790.821 838.386L939.948 1016.11C942.61 1019.28 947.341 1019.7 950.514 1017.03C953.687 1014.37 954.101 1009.64 951.438 1006.47L802.312 828.744Z" fill="url(#paint11_linear_144_7)" fill-opacity="0.4"/>
<path d="M454.749 240.375C451.199 236.144 444.891 235.592 440.66 239.142C436.43 242.692 435.878 249 439.428 253.231L585.341 427.123C588.891 431.354 595.198 431.905 599.429 428.355C603.66 424.805 604.212 418.498 600.662 414.267L454.749 240.375Z" fill="url(#paint12_linear_144_7)" fill-opacity="0.6"/>
<path d="M1001.87 223.828C1000.1 221.713 996.946 221.437 994.83 223.212C992.715 224.987 992.439 228.141 994.214 230.256L1026.35 268.558C1028.13 270.674 1031.28 270.95 1033.4 269.175C1035.51 267.4 1035.79 264.246 1034.01 262.13L1001.87 223.828Z" fill="url(#paint13_linear_144_7)"/>
<path d="M866.55 5.91797C863 1.68723 856.692 1.13539 852.461 4.6854C848.23 8.23542 847.679 14.543 851.229 18.7737L1045.13 249.855C1048.68 254.086 1054.99 254.637 1059.22 251.087C1063.45 247.537 1064 241.23 1060.45 236.999L866.55 5.91797Z" fill="url(#paint14_linear_144_7)"/>
</g>
<defs>
<linearGradient id="paint0_linear_144_7" x1="3.83022" y1="485.216" x2="119.532" y2="623.104" gradientUnits="userSpaceOnUse">
<stop stop-color="#0971DF"/>
<stop offset="1" stop-color="#7B336A"/>
</linearGradient>
<linearGradient id="paint1_linear_144_7" x1="6.8944" y1="435.785" x2="165.663" y2="624.998" gradientUnits="userSpaceOnUse">
<stop stop-color="#0971DF"/>
<stop offset="1" stop-color="#7B336A"/>
</linearGradient>
<linearGradient id="paint2_linear_144_7" x1="693.83" y1="176.716" x2="822.388" y2="329.925" gradientUnits="userSpaceOnUse">
<stop stop-color="#0971DF"/>
<stop offset="1" stop-color="#7B336A"/>
</linearGradient>
<linearGradient id="paint3_linear_144_7" x1="838.149" y1="210.466" x2="966.707" y2="363.674" gradientUnits="userSpaceOnUse">
<stop stop-color="#0971DF"/>
<stop offset="1" stop-color="#7B336A"/>
</linearGradient>
<linearGradient id="paint4_linear_144_7" x1="436.83" y1="289.212" x2="552.532" y2="427.1" gradientUnits="userSpaceOnUse">
<stop stop-color="#0971DF"/>
<stop offset="1" stop-color="#7B336A"/>
</linearGradient>
<linearGradient id="paint5_linear_144_7" x1="369.064" y1="323.569" x2="426.814" y2="392.392" gradientUnits="userSpaceOnUse">
<stop stop-color="#0971DF"/>
<stop offset="1" stop-color="#7B336A"/>
</linearGradient>
<linearGradient id="paint6_linear_144_7" x1="557.915" y1="528.608" x2="696.753" y2="694.069" gradientUnits="userSpaceOnUse">
<stop stop-color="#0971DF"/>
<stop offset="1" stop-color="#7B336A"/>
</linearGradient>
<linearGradient id="paint7_linear_144_7" x1="696.447" y1="548.537" x2="835.285" y2="713.998" gradientUnits="userSpaceOnUse">
<stop stop-color="#0971DF"/>
<stop offset="1" stop-color="#7B336A"/>
</linearGradient>
<linearGradient id="paint8_linear_144_7" x1="716.447" y1="819.893" x2="855.286" y2="985.354" gradientUnits="userSpaceOnUse">
<stop stop-color="#0971DF"/>
<stop offset="1" stop-color="#7B336A"/>
</linearGradient>
<linearGradient id="paint9_linear_144_7" x1="677.915" y1="809.608" x2="728.424" y2="869.802" gradientUnits="userSpaceOnUse">
<stop stop-color="#0971DF"/>
<stop offset="1" stop-color="#7B336A"/>
</linearGradient>
<linearGradient id="paint10_linear_144_7" x1="452.745" y1="150.749" x2="611.514" y2="339.962" gradientUnits="userSpaceOnUse">
<stop stop-color="#0971DF"/>
<stop offset="1" stop-color="#7B336A"/>
</linearGradient>
<linearGradient id="paint11_linear_144_7" x1="791.745" y1="827.82" x2="950.513" y2="1017.03" gradientUnits="userSpaceOnUse">
<stop stop-color="#0971DF"/>
<stop offset="1" stop-color="#7B336A"/>
</linearGradient>
<linearGradient id="paint12_linear_144_7" x1="440.66" y1="239.142" x2="599.429" y2="428.355" gradientUnits="userSpaceOnUse">
<stop stop-color="#0971DF"/>
<stop offset="1" stop-color="#7B336A"/>
</linearGradient>
<linearGradient id="paint13_linear_144_7" x1="994.83" y1="223.212" x2="1033.4" y2="269.175" gradientUnits="userSpaceOnUse">
<stop stop-color="#0971DF"/>
<stop offset="1" stop-color="#7B336A"/>
</linearGradient>
<linearGradient id="paint14_linear_144_7" x1="852.461" y1="4.6854" x2="1059.22" y2="251.088" gradientUnits="userSpaceOnUse">
<stop stop-color="#0971DF"/>
<stop offset="1" stop-color="#7B336A"/>
</linearGradient>
<clipPath id="clip0_144_7">
<rect width="1067" height="1022" fill="white"/>
</clipPath>
</defs>
</svg>
